<svg width="851" height="652" viewBox="0 0 851 652" fill="none" xmlns="http://www.w3.org/2000/svg">
<rect width="851" height="652" rx="20" fill="#F5DED0"/>
<mask id="mask0_26_376" style="mask-type:alpha" maskUnits="userSpaceOnUse" x="0" y="0" width="851" height="652">
<rect width="851" height="652" rx="20" fill="#F5DED0"/>
</mask>
<g mask="url(#mask0_26_376)">
<rect y="542" width="851" height="110" fill="#F2BD9C"/>
</g>
<path opacity="0.5" d="M425.5 617C638.406 617 811 608.493 811 598C811 587.507 638.406 579 425.5 579C212.594 579 40 587.507 40 598C40 608.493 212.594 617 425.5 617Z" fill="white"/>
<path d="M722.979 588H138.021C128.735 588 119.829 583.913 113.262 576.638C106.695 569.364 103.004 559.496 103 549.206V104.306C103 96.7985 105.691 89.5988 110.481 84.2905C115.271 78.9822 121.768 76 128.542 76H733.855C737.025 75.998 740.165 76.6882 743.094 78.0312C746.023 79.3742 748.685 81.3436 750.927 83.827C753.17 86.3104 754.948 89.259 756.162 92.5045C757.375 95.7499 758 99.2285 758 102.742V549.206C757.996 559.496 754.305 569.364 747.738 576.638C741.171 583.913 732.265 588 722.979 588Z" fill="#455A64"/>
<path d="M757.005 595.282H109.069C104.624 595.282 100.222 594.408 96.1154 592.71C92.0086 591.012 88.2771 588.523 85.1339 585.385C78.786 579.049 75.2197 570.455 75.2197 561.494V556.231C75.2197 555.886 75.3568 555.556 75.6007 555.312C75.8447 555.069 76.1756 554.932 76.5206 554.932H783.672C784.017 554.932 784.348 555.069 784.592 555.312C784.836 555.556 784.973 555.886 784.973 556.231V567.392C784.973 571.057 784.249 574.686 782.843 578.071C781.438 581.457 779.377 584.533 776.78 587.123C774.182 589.713 771.099 591.767 767.706 593.167C764.313 594.567 760.677 595.285 757.005 595.282Z" fill="#455A64"/>
<path d="M757.005 595.282H757.96C758.887 595.248 759.811 595.161 760.728 595.019C764.427 594.547 767.984 593.295 771.162 591.345C773.518 589.961 775.646 588.223 777.472 586.192C779.703 583.762 781.484 580.956 782.731 577.904C784.158 574.326 784.85 570.497 784.765 566.646V560.195C784.765 559.104 784.765 557.985 784.765 556.852C784.765 556.286 784.765 555.72 784.392 555.36C784.018 555.001 783.437 555.057 782.842 555.057L625.082 555.167L104.461 555.222H76.5898C76.4437 555.192 76.293 555.192 76.1469 555.222C76.0183 555.282 75.9037 555.369 75.8107 555.476C75.7177 555.583 75.6484 555.708 75.6072 555.844C75.5845 556.207 75.5845 556.572 75.6072 556.935V559.366C75.6072 560.941 75.6072 562.488 75.7456 564.035C75.9445 567.162 76.6019 570.243 77.6969 573.18C78.2363 574.599 78.8649 575.984 79.5789 577.324C80.3323 578.669 81.1688 579.965 82.0837 581.206C85.7354 586.183 90.6913 590.06 96.4066 592.409C99.247 593.547 102.225 594.308 105.263 594.674C108.28 594.964 111.366 594.895 114.438 594.895H307.293L541.359 594.978L699.118 595.088L742.018 595.157L699.118 595.226L541.359 595.337L307.293 595.406H169.059H114.438C111.38 595.406 108.294 595.475 105.18 595.171C102.075 594.805 99.0313 594.029 96.1298 592.864C90.2936 590.466 85.2324 586.509 81.5025 581.427C80.5691 580.158 79.7141 578.834 78.9423 577.462C78.2125 576.064 77.5746 574.62 77.0326 573.139C75.9094 570.177 75.2196 567.069 74.9845 563.911C74.9015 562.336 74.8323 560.748 74.86 559.187V556.838C74.8141 556.416 74.8141 555.99 74.86 555.568C74.926 555.324 75.0461 555.098 75.2113 554.907C75.3766 554.715 75.5828 554.564 75.8148 554.463C76.0423 554.368 76.2882 554.325 76.5344 554.338H104.461L625.082 554.435L782.842 554.559H783.727C784.046 554.59 784.345 554.725 784.58 554.942C784.815 555.159 784.972 555.446 785.028 555.761C785.028 556.093 785.028 556.341 785.028 556.631V559.974C785.028 562.171 785.028 564.298 785.028 566.356C785.102 570.234 784.391 574.086 782.939 577.683C781.677 580.74 779.877 583.547 777.625 585.971C775.779 588.009 773.626 589.747 771.245 591.124C768.048 593.064 764.471 594.298 760.755 594.743C759.839 594.881 758.914 594.955 757.988 594.964L757.005 595.282Z" fill="#263238"/>
<path d="M721.717 155.152H136.76C132.732 155.152 129.467 158.411 129.467 162.432V525.702C129.467 529.723 132.732 532.982 136.76 532.982H721.717C725.744 532.982 729.01 529.723 729.01 525.702V162.432C729.01 158.411 725.744 155.152 721.717 155.152Z" fill="#263238"/>
<path d="M721.717 532.996C722.139 532.972 722.559 532.926 722.976 532.858C724.204 532.63 725.356 532.098 726.325 531.311C727.113 530.654 727.754 529.838 728.205 528.917C728.656 527.996 728.906 526.99 728.94 525.965C728.94 523.506 728.94 520.661 728.94 517.428C728.94 504.499 728.94 485.45 728.94 460.903C728.94 411.809 728.871 340.724 728.816 253.022C728.816 231.076 728.816 208.114 728.816 184.133C728.816 178.138 728.816 172.088 728.816 165.982V163.689C728.844 162.937 728.816 162.185 728.733 161.437C728.531 159.958 727.854 158.583 726.804 157.52C725.754 156.456 724.386 155.761 722.907 155.539C722.149 155.45 721.386 155.418 720.623 155.442H680.09H515.024H136.801C135.803 155.435 134.815 155.644 133.904 156.054C132.994 156.464 132.184 157.066 131.529 157.818C130.882 158.572 130.409 159.458 130.145 160.415C129.897 161.394 129.803 162.405 129.868 163.413V346.485C129.868 378.063 129.868 409.056 129.868 439.464C129.868 454.659 129.868 469.684 129.868 484.538V523.147C129.692 524.915 129.875 526.701 130.408 528.396C131.09 530.004 132.348 531.3 133.937 532.029C134.725 532.389 135.575 532.596 136.442 532.637C137.3 532.637 138.241 532.637 139.126 532.637H293.343H437.168L645.425 532.748L702.038 532.817L645.425 532.886L437.168 532.996H293.343H213.218H139.057C138.144 532.996 137.272 532.996 136.289 532.996C135.334 532.946 134.396 532.722 133.522 532.333C131.776 531.532 130.394 530.108 129.647 528.341C129.289 527.462 129.092 526.527 129.066 525.578V506.695C129.066 499.328 129.066 491.961 129.066 484.593V439.464C129.066 409.074 129.066 378.081 129.066 346.485V163.496C129.004 162.418 129.107 161.338 129.37 160.291C129.686 159.218 130.234 158.228 130.975 157.39C131.701 156.56 132.596 155.894 133.601 155.439C134.606 154.984 135.698 154.749 136.801 154.752H515.024H680.09H720.527C721.317 154.727 722.108 154.764 722.893 154.862C724.495 155.111 725.974 155.866 727.114 157.017C728.294 158.183 729.049 159.71 729.259 161.355C729.348 162.129 729.376 162.91 729.342 163.689V184.133C729.342 208.077 729.342 231.04 729.342 253.022C729.342 340.78 729.259 411.878 729.231 460.903C729.231 485.45 729.231 504.499 729.231 517.428C729.231 520.661 729.231 523.506 729.231 525.965C729.168 527.638 728.53 529.238 727.424 530.496C726.317 531.755 724.81 532.593 723.156 532.872C722.845 532.925 722.53 532.953 722.215 532.955L721.717 532.996Z" fill="#263238"/>
<path d="M365.581 554.131L374.382 569.05H498.307L506.485 554.131H365.581Z" fill="#263238"/>
<path d="M434.995 93.3607C434.995 94.3306 434.707 95.2787 434.167 96.0852C433.627 96.8916 432.86 97.5201 431.962 97.8913C431.065 98.2625 430.077 98.3596 429.124 98.1704C428.171 97.9811 427.296 97.5141 426.609 96.8283C425.922 96.1425 425.454 95.2687 425.264 94.3174C425.075 93.3662 425.172 92.3802 425.544 91.4841C425.916 90.5881 426.545 89.8222 427.353 89.2834C428.161 88.7445 429.111 88.4569 430.082 88.4569C431.385 88.4569 432.635 88.9736 433.556 89.8932C434.478 90.8129 434.995 92.0602 434.995 93.3607Z" fill="#263238"/>
<path d="M729 110H129V533H729V110Z" fill="white"/>
<path d="M128.388 109.627H178.359V138.139C178.359 143.462 176.24 148.567 172.469 152.331C168.698 156.095 163.584 158.21 158.251 158.21H148.564C145.918 158.219 143.296 157.706 140.848 156.702C138.401 155.697 136.176 154.22 134.301 152.355C132.427 150.491 130.94 148.275 129.925 145.835C128.91 143.396 128.388 140.78 128.388 138.139V109.627Z" fill="#FF725E"/>
<path d="M178.359 109.627H228.302V138.139C228.302 143.462 226.184 148.567 222.413 152.331C218.642 156.095 213.528 158.21 208.195 158.21H198.508C193.175 158.21 188.06 156.095 184.29 152.331C180.519 148.567 178.4 143.462 178.4 138.139V109.627H178.359Z" fill="#FF725E"/>
<path d="M228.302 109.627H278.273V138.139C278.273 143.457 276.159 148.558 272.394 152.321C268.629 156.085 263.521 158.202 258.193 158.21H248.506C245.858 158.222 243.233 157.713 240.782 156.71C238.331 155.707 236.103 154.23 234.226 152.365C232.348 150.5 230.858 148.283 229.842 145.842C228.825 143.4 228.302 140.782 228.302 138.139V109.627Z" fill="#FF725E"/>
<path d="M278.301 109.627H328.521V138.139C328.521 143.462 326.403 148.567 322.632 152.331C318.861 156.095 313.746 158.21 308.414 158.21H298.422C293.089 158.21 287.975 156.095 284.204 152.331C280.433 148.567 278.315 143.462 278.315 138.139V109.627H278.301Z" fill="#FF725E"/>
<path d="M328.521 109.627H378.492V138.139C378.492 143.462 376.374 148.567 372.603 152.331C368.832 156.095 363.718 158.21 358.385 158.21H348.698C343.365 158.21 338.251 156.095 334.48 152.331C330.709 148.567 328.59 143.462 328.59 138.139V109.627H328.521Z" fill="#FF725E"/>
<path d="M378.492 109.627H428.463V138.139C428.463 143.462 426.345 148.567 422.574 152.331C418.803 156.095 413.689 158.21 408.356 158.21H398.669C393.336 158.21 388.222 156.095 384.451 152.331C380.68 148.567 378.561 143.462 378.561 138.139V109.627H378.492Z" fill="#FF725E"/>
<path d="M428.463 109.627H478.434V138.139C478.434 143.462 476.316 148.567 472.545 152.331C468.774 156.095 463.66 158.21 458.327 158.21H448.64C443.307 158.21 438.193 156.095 434.422 152.331C430.651 148.567 428.533 143.462 428.533 138.139V109.627H428.463Z" fill="#FF725E"/>
<path d="M478.434 109.627H529.236V138.139C529.236 143.462 527.117 148.567 523.347 152.331C519.576 156.095 514.461 158.21 509.128 158.21H498.542C493.209 158.21 488.095 156.095 484.324 152.331C480.553 148.567 478.434 143.462 478.434 138.139V109.627Z" fill="#FF725E"/>
<path d="M528.599 109.627H578.57V138.139C578.57 143.462 576.452 148.567 572.681 152.331C568.91 156.095 563.796 158.21 558.463 158.21H548.776C546.13 158.219 543.507 157.706 541.06 156.702C538.612 155.697 536.388 154.22 534.513 152.355C532.639 150.491 531.151 148.275 530.137 145.835C529.122 143.396 528.599 140.78 528.599 138.139V109.627Z" fill="#FF725E"/>
<path d="M578.612 109.627H628.583V138.139C628.583 143.462 626.465 148.567 622.694 152.331C618.923 156.095 613.808 158.21 608.476 158.21H598.789C593.456 158.21 588.341 156.095 584.57 152.331C580.8 148.567 578.681 143.462 578.681 138.139V109.627H578.612Z" fill="#FF725E"/>
<path d="M628.583 109.627H678.554V138.139C678.554 143.462 676.436 148.567 672.665 152.331C668.894 156.095 663.78 158.21 658.447 158.21H648.76C643.427 158.21 638.313 156.095 634.542 152.331C630.771 148.567 628.652 143.462 628.652 138.139V109.627H628.583Z" fill="#FF725E"/>
<path d="M678.554 109.627H728.525V138.139C728.525 143.462 726.407 148.567 722.636 152.331C718.865 156.095 713.751 158.21 708.418 158.21H698.731C693.398 158.21 688.284 156.095 684.513 152.331C680.742 148.567 678.623 143.462 678.623 138.139V109.627H678.554Z" fill="#FF725E"/>
<g opacity="0.3">
<path d="M178.359 109.627H228.302V138.139C228.302 143.462 226.184 148.567 222.413 152.331C218.642 156.095 213.528 158.21 208.195 158.21H198.508C193.175 158.21 188.06 156.095 184.29 152.331C180.519 148.567 178.4 143.462 178.4 138.139V109.627H178.359Z" fill="white"/>
</g>
<g opacity="0.3">
<path d="M278.301 109.627H328.521V138.139C328.521 143.462 326.403 148.567 322.632 152.331C318.861 156.095 313.746 158.21 308.414 158.21H298.422C293.089 158.21 287.975 156.095 284.204 152.331C280.433 148.567 278.315 143.462 278.315 138.139V109.627H278.301Z" fill="white"/>
</g>
<g opacity="0.3">
<path d="M378.492 109.627H428.463V138.139C428.463 143.462 426.345 148.567 422.574 152.331C418.803 156.095 413.689 158.21 408.356 158.21H398.669C393.336 158.21 388.222 156.095 384.451 152.331C380.68 148.567 378.561 143.462 378.561 138.139V109.627H378.492Z" fill="white"/>
</g>
<g opacity="0.3">
<path d="M478.434 109.627H529.236V138.139C529.236 143.462 527.117 148.567 523.347 152.331C519.576 156.095 514.461 158.21 509.128 158.21H498.542C493.209 158.21 488.095 156.095 484.324 152.331C480.553 148.567 478.434 143.462 478.434 138.139V109.627Z" fill="white"/>
</g>
<g opacity="0.3">
<path d="M578.612 109.627H628.583V138.139C628.583 143.462 626.465 148.567 622.694 152.331C618.923 156.095 613.808 158.21 608.476 158.21H598.789C593.456 158.21 588.341 156.095 584.57 152.331C580.8 148.567 578.681 143.462 578.681 138.139V109.627H578.612Z" fill="white"/>
</g>
<g opacity="0.3">
<path d="M678.554 109.627H728.525V138.139C728.525 143.462 726.407 148.567 722.636 152.331C718.865 156.095 713.751 158.21 708.418 158.21H698.731C693.398 158.21 688.284 156.095 684.513 152.331C680.742 148.567 678.623 143.462 678.623 138.139V109.627H678.554Z" fill="white"/>
</g>
<path d="M178.358 141.91C178.165 141.91 177.999 134.685 177.999 125.775C177.999 116.866 178.165 109.641 178.358 109.641C178.552 109.641 178.718 116.866 178.718 125.775C178.718 134.685 178.552 141.91 178.358 141.91Z" fill="#263238"/>
<path d="M227.97 141.91C227.776 141.91 227.61 134.685 227.61 125.775C227.61 116.866 227.776 109.641 227.97 109.641C228.163 109.641 228.329 116.866 228.329 125.775C228.329 134.685 228.163 141.91 227.97 141.91Z" fill="#263238"/>
<path d="M278.301 141.91C278.107 141.91 277.941 134.685 277.941 125.775C277.941 116.866 278.121 109.627 278.301 109.627C278.48 109.627 278.66 116.852 278.66 125.762C278.66 134.671 278.494 141.91 278.301 141.91Z" fill="#263238"/>
<path d="M328.521 141.55C328.313 141.55 328.161 134.326 328.161 125.416C328.161 116.506 328.313 109.282 328.521 109.282C328.728 109.282 328.88 116.506 328.88 125.416C328.88 134.326 328.714 141.55 328.521 141.55Z" fill="#263238"/>
<path d="M378.492 141.191C378.285 141.191 378.132 134.119 378.132 125.416C378.132 116.714 378.285 109.641 378.492 109.641C378.699 109.641 378.851 116.7 378.851 125.416C378.851 134.133 378.685 141.191 378.492 141.191Z" fill="#263238"/>
<path d="M428.961 140.625C428.768 140.625 428.602 133.552 428.602 124.85C428.602 116.147 428.768 109.075 428.961 109.075C429.155 109.075 429.321 116.133 429.321 124.85C429.321 133.566 429.127 140.625 428.961 140.625Z" fill="#263238"/>
<path d="M478.434 140.017C478.227 140.017 478.075 133.207 478.075 124.822C478.075 116.437 478.227 109.627 478.434 109.627C478.641 109.627 478.794 116.437 478.794 124.822C478.794 133.207 478.628 140.017 478.434 140.017Z" fill="#263238"/>
<path d="M528.945 140.017C528.738 140.017 528.586 133.207 528.586 124.822C528.586 116.437 528.738 109.627 528.945 109.627C529.152 109.627 529.304 116.437 529.304 124.822C529.304 133.207 529.138 140.017 528.945 140.017Z" fill="#263238"/>
<path d="M578.612 140.017C578.418 140.017 578.252 133.207 578.252 124.822C578.252 116.437 578.418 109.627 578.612 109.627C578.805 109.627 578.971 116.437 578.971 124.822C578.971 133.207 578.819 140.017 578.612 140.017Z" fill="#263238"/>
<path d="M628.804 140.017C628.597 140.017 628.445 133.207 628.445 124.822C628.445 116.437 628.597 109.627 628.804 109.627C629.011 109.627 629.163 116.437 629.163 124.822C629.163 133.207 628.997 140.017 628.804 140.017Z" fill="#263238"/>
<path d="M678.983 140.017C678.789 140.017 678.623 133.207 678.623 124.822C678.623 116.437 678.789 109.627 678.983 109.627C679.176 109.627 679.342 116.437 679.342 124.822C679.342 133.207 679.19 140.017 678.983 140.017Z" fill="#263238"/>
<rect x="310" y="181" width="56.3333" height="52" rx="6" fill="#C2835F"/>
<g clip-path="url(#clip0_26_376)">
<path d="M321 202.267L343.036 224.083H355.507L321.003 190.001L321 202.267Z" fill="white"/>
<path d="M356.001 204.408C355.993 205.265 355.873 209.872 352.391 213.853C351.251 215.152 349.888 216.24 348.364 217.067L340.795 209.581C341.147 209.515 343.441 209.041 344.694 206.87C344.836 206.625 344.958 206.368 345.06 206.104C344.573 206.038 344.126 205.801 343.802 205.435C343.478 205.07 343.297 204.601 343.294 204.115C343.291 203.628 343.465 203.157 343.784 202.788C344.104 202.418 344.547 202.175 345.033 202.103C344.705 201.246 344.157 200.489 343.444 199.906C342.683 199.292 341.767 198.893 340.795 198.753L329.712 198.62L321 190L342.554 190.066C343.95 190.13 347.371 190.475 350.563 192.912C355.958 197.027 356.008 203.537 356.001 204.408Z" fill="#FDEAE3"/>
</g>
<path d="M393.763 218H389.603L388.067 211.6H386.691V218H382.691V197.2H388.067C389.731 197.2 391.096 197.712 392.163 198.736C393.229 199.76 393.763 201.136 393.763 202.864V205.936C393.763 208.027 392.995 209.595 391.459 210.64L392.131 211.504L393.763 218ZM386.691 207.6H388.067C388.6 207.6 389.016 207.451 389.315 207.152C389.613 206.832 389.763 206.427 389.763 205.936V202.864C389.763 202.373 389.613 201.979 389.315 201.68C389.016 201.36 388.6 201.2 388.067 201.2H386.691V207.6ZM406.133 205.584V209.584H400.533V214H406.133V218H396.533V197.2H406.133V201.2H400.533V205.584H406.133ZM420.771 211.6V212.464C420.771 214.171 420.195 215.525 419.043 216.528C417.912 217.509 416.483 218 414.755 218H409.251V197.2H414.435C416.077 197.2 417.485 197.755 418.659 198.864C419.853 199.952 420.451 201.349 420.451 203.056V203.76C420.451 205.424 419.725 206.704 418.275 207.6C418.979 207.877 419.565 208.379 420.035 209.104C420.525 209.808 420.771 210.64 420.771 211.6ZM413.251 205.584H414.275C414.851 205.584 415.331 205.413 415.715 205.072C416.099 204.731 416.291 204.283 416.291 203.728V203.184C416.291 202.587 416.099 202.107 415.715 201.744C415.331 201.381 414.851 201.2 414.275 201.2H413.251V205.584ZM414.595 209.584H413.251V214H414.595C415.149 214 415.619 213.808 416.003 213.424C416.408 213.019 416.611 212.539 416.611 211.984V211.44C416.611 210.885 416.419 210.437 416.035 210.096C415.651 209.755 415.171 209.584 414.595 209.584ZM426.513 218H422.385L426.481 197.2H432.209L436.305 218H432.177L431.377 213.36H427.281L426.513 218ZM429.329 202L427.985 209.52H430.673L429.329 202ZM447.358 201.2H443.998V218H439.998V201.2H436.638V197.2H447.358V201.2ZM460.723 212.592C460.723 214.341 460.2 215.728 459.155 216.752C458.11 217.776 456.744 218.288 455.059 218.288C453.374 218.288 451.998 217.776 450.931 216.752C449.886 215.707 449.363 214.32 449.363 212.592V202.544C449.363 200.795 449.886 199.419 450.931 198.416C451.998 197.392 453.374 196.88 455.059 196.88C456.744 196.88 458.11 197.392 459.155 198.416C460.2 199.419 460.723 200.795 460.723 202.544V212.592ZM456.723 212.592V202.544C456.723 202.053 456.574 201.659 456.275 201.36C455.976 201.04 455.56 200.88 455.027 200.88C454.515 200.88 454.11 201.04 453.811 201.36C453.512 201.68 453.363 202.075 453.363 202.544V212.592C453.363 213.083 453.502 213.488 453.779 213.808C454.078 214.128 454.494 214.288 455.027 214.288C455.56 214.288 455.976 214.139 456.275 213.84C456.574 213.52 456.723 213.104 456.723 212.592ZM482.002 212.592C482.002 214.341 481.479 215.728 480.434 216.752C479.388 217.776 478.023 218.288 476.338 218.288C474.652 218.288 473.276 217.776 472.21 216.752C471.164 215.707 470.642 214.32 470.642 212.592V202.544C470.642 200.795 471.164 199.419 472.21 198.416C473.276 197.392 474.652 196.88 476.338 196.88C478.023 196.88 479.388 197.392 480.434 198.416C481.479 199.419 482.002 200.795 482.002 202.544V212.592ZM478.002 212.592V202.544C478.002 202.053 477.852 201.659 477.554 201.36C477.255 201.04 476.839 200.88 476.306 200.88C475.794 200.88 475.388 201.04 475.09 201.36C474.791 201.68 474.642 202.075 474.642 202.544V212.592C474.642 213.083 474.78 213.488 475.058 213.808C475.356 214.128 475.772 214.288 476.306 214.288C476.839 214.288 477.255 214.139 477.554 213.84C477.852 213.52 478.002 213.104 478.002 212.592ZM494.531 205.584V209.584H488.931V218H484.931V197.2H494.531V201.2H488.931V205.584H494.531ZM506.998 205.584V209.584H501.398V218H497.398V197.2H506.998V201.2H501.398V205.584H506.998ZM519.466 205.584V209.584H513.866V214H519.466V218H509.866V197.2H519.466V201.2H513.866V205.584H519.466ZM533.655 218H529.495L527.959 211.6H526.583V218H522.583V197.2H527.959C529.623 197.2 530.988 197.712 532.055 198.736C533.122 199.76 533.655 201.136 533.655 202.864V205.936C533.655 208.027 532.887 209.595 531.351 210.64L532.023 211.504L533.655 218ZM526.583 207.6H527.959C528.492 207.6 528.908 207.451 529.207 207.152C529.506 206.832 529.655 206.427 529.655 205.936V202.864C529.655 202.373 529.506 201.979 529.207 201.68C528.908 201.36 528.492 201.2 527.959 201.2H526.583V207.6ZM535.878 212.56V210.544H539.878V212.56C539.878 213.115 540.027 213.541 540.326 213.84C540.646 214.139 541.051 214.288 541.542 214.288C542.033 214.288 542.438 214.139 542.758 213.84C543.078 213.541 543.238 213.125 543.238 212.592C543.238 211.973 543.067 211.515 542.726 211.216L537.414 206.608C536.39 205.712 535.878 204.357 535.878 202.544C535.878 200.859 536.39 199.493 537.414 198.448C538.438 197.403 539.825 196.88 541.574 196.88C543.323 196.88 544.699 197.403 545.702 198.448C546.726 199.493 547.238 200.859 547.238 202.544V204.624H543.238V202.544C543.238 202.011 543.078 201.605 542.758 201.328C542.438 201.029 542.033 200.88 541.542 200.88C541.051 200.88 540.646 201.029 540.326 201.328C540.027 201.605 539.878 202.011 539.878 202.544C539.878 203.163 540.059 203.632 540.422 203.952L545.702 208.56C546.726 209.477 547.238 210.821 547.238 212.592C547.238 214.277 546.726 215.653 545.702 216.72C544.678 217.765 543.302 218.288 541.574 218.288C539.846 218.288 538.459 217.755 537.414 216.688C536.39 215.621 535.878 214.245 535.878 212.56Z" fill="#C2835F"/>
<g filter="url(#filter0_d_26_376)">
<rect x="160" y="251" width="538" height="91" rx="10" fill="white"/>
<rect x="160.5" y="251.5" width="537" height="90" rx="9.5" stroke="#C2835F" stroke-opacity="0.18"/>
</g>
<rect x="190" y="279" width="6" height="6" rx="3" fill="#C2835F"/>
<path d="M210.288 288.112C209.243 288.112 208.283 287.867 207.408 287.376C206.533 286.885 205.84 286.208 205.328 285.344C204.816 284.469 204.56 283.483 204.56 282.384C204.56 281.296 204.816 280.32 205.328 279.456C205.84 278.581 206.533 277.899 207.408 277.408C208.283 276.917 209.243 276.672 210.288 276.672C211.344 276.672 212.304 276.917 213.168 277.408C214.043 277.899 214.731 278.581 215.232 279.456C215.744 280.32 216 281.296 216 282.384C216 283.483 215.744 284.469 215.232 285.344C214.731 286.208 214.043 286.885 213.168 287.376C212.293 287.867 211.333 288.112 210.288 288.112ZM210.288 286.112C210.96 286.112 211.552 285.963 212.064 285.664C212.576 285.355 212.976 284.917 213.264 284.352C213.552 283.787 213.696 283.131 213.696 282.384C213.696 281.637 213.552 280.987 213.264 280.432C212.976 279.867 212.576 279.435 212.064 279.136C211.552 278.837 210.96 278.688 210.288 278.688C209.616 278.688 209.019 278.837 208.496 279.136C207.984 279.435 207.584 279.867 207.296 280.432C207.008 280.987 206.864 281.637 206.864 282.384C206.864 283.131 207.008 283.787 207.296 284.352C207.584 284.917 207.984 285.355 208.496 285.664C209.019 285.963 209.616 286.112 210.288 286.112ZM224.562 276.832V278.64H219.907V281.504H223.475V283.28H219.907V288H217.667V276.832H224.562ZM233.047 276.832V278.64H228.391V281.504H231.959V283.28H228.391V288H226.151V276.832H233.047ZM236.875 278.64V281.44H240.635V283.216H236.875V286.176H241.115V288H234.635V276.816H241.115V278.64H236.875ZM248.911 288L246.447 283.648H245.391V288H243.151V276.832H247.343C248.207 276.832 248.943 276.987 249.551 277.296C250.159 277.595 250.612 278.005 250.911 278.528C251.22 279.04 251.375 279.616 251.375 280.256C251.375 280.992 251.162 281.659 250.735 282.256C250.308 282.843 249.674 283.248 248.831 283.472L251.503 288H248.911ZM245.391 281.968H247.263C247.871 281.968 248.324 281.824 248.623 281.536C248.922 281.237 249.071 280.827 249.071 280.304C249.071 279.792 248.922 279.397 248.623 279.12C248.324 278.832 247.871 278.688 247.263 278.688H245.391V281.968ZM266.765 288H264.525L259.453 280.336V288H257.213V276.816H259.453L264.525 284.496V276.816H266.765V288ZM275.827 285.872H271.379L270.643 288H268.291L272.307 276.816H274.915L278.931 288H276.563L275.827 285.872ZM275.219 284.08L273.603 279.408L271.987 284.08H275.219ZM292.608 276.832V288H290.368V280.736L287.376 288H285.68L282.672 280.736V288H280.432V276.832H282.976L286.528 285.136L290.08 276.832H292.608ZM297.063 278.64V281.44H300.823V283.216H297.063V286.176H301.303V288H294.823V276.816H301.303V278.64H297.063Z" fill="#C2835F"/>
<path d="M190.532 307.04V305.878H193.164V316H191.876V307.04H190.532ZM195.912 310.834C195.912 309.229 196.174 307.978 196.696 307.082C197.219 306.177 198.134 305.724 199.44 305.724C200.738 305.724 201.648 306.177 202.17 307.082C202.693 307.978 202.954 309.229 202.954 310.834C202.954 312.467 202.693 313.737 202.17 314.642C201.648 315.547 200.738 316 199.44 316C198.134 316 197.219 315.547 196.696 314.642C196.174 313.737 195.912 312.467 195.912 310.834ZM201.694 310.834C201.694 310.022 201.638 309.336 201.526 308.776C201.424 308.207 201.204 307.749 200.868 307.404C200.542 307.059 200.066 306.886 199.44 306.886C198.806 306.886 198.32 307.059 197.984 307.404C197.658 307.749 197.438 308.207 197.326 308.776C197.224 309.336 197.172 310.022 197.172 310.834C197.172 311.674 197.224 312.379 197.326 312.948C197.438 313.517 197.658 313.975 197.984 314.32C198.32 314.665 198.806 314.838 199.44 314.838C200.066 314.838 200.542 314.665 200.868 314.32C201.204 313.975 201.424 313.517 201.526 312.948C201.638 312.379 201.694 311.674 201.694 310.834ZM204.983 308.16C204.983 307.525 205.175 307.021 205.557 306.648C205.94 306.265 206.43 306.074 207.027 306.074C207.625 306.074 208.115 306.265 208.497 306.648C208.88 307.021 209.071 307.525 209.071 308.16C209.071 308.804 208.88 309.317 208.497 309.7C208.115 310.073 207.625 310.26 207.027 310.26C206.43 310.26 205.94 310.073 205.557 309.7C205.175 309.317 204.983 308.804 204.983 308.16ZM213.159 306.228L207.489 316H206.229L211.899 306.228H213.159ZM207.027 306.858C206.71 306.858 206.458 306.97 206.271 307.194C206.094 307.409 206.005 307.731 206.005 308.16C206.005 308.589 206.094 308.916 206.271 309.14C206.458 309.364 206.71 309.476 207.027 309.476C207.345 309.476 207.597 309.364 207.783 309.14C207.97 308.907 208.063 308.58 208.063 308.16C208.063 307.731 207.97 307.409 207.783 307.194C207.597 306.97 207.345 306.858 207.027 306.858ZM210.345 314.068C210.345 313.424 210.537 312.915 210.919 312.542C211.302 312.159 211.792 311.968 212.389 311.968C212.987 311.968 213.472 312.159 213.845 312.542C214.228 312.915 214.419 313.424 214.419 314.068C214.419 314.703 214.228 315.211 213.845 315.594C213.472 315.977 212.987 316.168 212.389 316.168C211.792 316.168 211.302 315.981 210.919 315.608C210.537 315.225 210.345 314.712 210.345 314.068ZM212.375 312.766C212.058 312.766 211.806 312.878 211.619 313.102C211.433 313.317 211.339 313.639 211.339 314.068C211.339 314.488 211.433 314.81 211.619 315.034C211.806 315.249 212.058 315.356 212.375 315.356C212.693 315.356 212.945 315.249 213.131 315.034C213.318 314.81 213.411 314.488 213.411 314.068C213.411 313.639 213.318 313.317 213.131 313.102C212.945 312.878 212.693 312.766 212.375 312.766ZM225.373 316.098C224.468 316.098 223.642 315.888 222.895 315.468C222.148 315.039 221.556 314.446 221.117 313.69C220.688 312.925 220.473 312.066 220.473 311.114C220.473 310.162 220.688 309.308 221.117 308.552C221.556 307.787 222.148 307.194 222.895 306.774C223.642 306.345 224.468 306.13 225.373 306.13C226.288 306.13 227.118 306.345 227.865 306.774C228.612 307.194 229.2 307.782 229.629 308.538C230.058 309.294 230.273 310.153 230.273 311.114C230.273 312.075 230.058 312.934 229.629 313.69C229.2 314.446 228.612 315.039 227.865 315.468C227.118 315.888 226.288 316.098 225.373 316.098ZM225.373 314.992C226.054 314.992 226.666 314.833 227.207 314.516C227.758 314.199 228.187 313.746 228.495 313.158C228.812 312.57 228.971 311.889 228.971 311.114C228.971 310.33 228.812 309.649 228.495 309.07C228.187 308.482 227.762 308.029 227.221 307.712C226.68 307.395 226.064 307.236 225.373 307.236C224.682 307.236 224.066 307.395 223.525 307.712C222.984 308.029 222.554 308.482 222.237 309.07C221.929 309.649 221.775 310.33 221.775 311.114C221.775 311.889 221.929 312.57 222.237 313.158C222.554 313.746 222.984 314.199 223.525 314.516C224.076 314.833 224.692 314.992 225.373 314.992ZM238.031 306.242V307.278H233.789V310.568H237.233V311.604H233.789V316H232.515V306.242H238.031ZM245.645 306.242V307.278H241.403V310.568H244.847V311.604H241.403V316H240.129V306.242H245.645ZM258.057 306.872L254.165 316H252.877L256.825 306.998H251.421V305.906H258.057V306.872ZM271.056 309.098C271.056 309.91 270.776 310.587 270.216 311.128C269.665 311.66 268.82 311.926 267.682 311.926H265.806V316H264.532V306.242H267.682C268.783 306.242 269.618 306.508 270.188 307.04C270.766 307.572 271.056 308.258 271.056 309.098ZM267.682 310.876C268.391 310.876 268.914 310.722 269.25 310.414C269.586 310.106 269.754 309.667 269.754 309.098C269.754 307.894 269.063 307.292 267.682 307.292H265.806V310.876H267.682ZM278.337 316L276.013 312.01H274.473V316H273.199V306.242H276.349C277.086 306.242 277.707 306.368 278.211 306.62C278.724 306.872 279.107 307.213 279.359 307.642C279.611 308.071 279.737 308.561 279.737 309.112C279.737 309.784 279.541 310.377 279.149 310.89C278.766 311.403 278.188 311.744 277.413 311.912L279.863 316H278.337ZM274.473 310.988H276.349C277.04 310.988 277.558 310.82 277.903 310.484C278.248 310.139 278.421 309.681 278.421 309.112C278.421 308.533 278.248 308.085 277.903 307.768C277.567 307.451 277.049 307.292 276.349 307.292H274.473V310.988ZM286.701 316.098C285.795 316.098 284.969 315.888 284.223 315.468C283.476 315.039 282.883 314.446 282.445 313.69C282.015 312.925 281.801 312.066 281.801 311.114C281.801 310.162 282.015 309.308 282.445 308.552C282.883 307.787 283.476 307.194 284.223 306.774C284.969 306.345 285.795 306.13 286.701 306.13C287.615 306.13 288.446 306.345 289.193 306.774C289.939 307.194 290.527 307.782 290.957 308.538C291.386 309.294 291.601 310.153 291.601 311.114C291.601 312.075 291.386 312.934 290.957 313.69C290.527 314.446 289.939 315.039 289.193 315.468C288.446 315.888 287.615 316.098 286.701 316.098ZM286.701 314.992C287.382 314.992 287.993 314.833 288.535 314.516C289.085 314.199 289.515 313.746 289.823 313.158C290.14 312.57 290.299 311.889 290.299 311.114C290.299 310.33 290.14 309.649 289.823 309.07C289.515 308.482 289.09 308.029 288.549 307.712C288.007 307.395 287.391 307.236 286.701 307.236C286.01 307.236 285.394 307.395 284.853 307.712C284.311 308.029 283.882 308.482 283.565 309.07C283.257 309.649 283.103 310.33 283.103 311.114C283.103 311.889 283.257 312.57 283.565 313.158C283.882 313.746 284.311 314.199 284.853 314.516C285.403 314.833 286.019 314.992 286.701 314.992ZM296.88 306.242C297.944 306.242 298.864 306.443 299.638 306.844C300.422 307.236 301.02 307.801 301.43 308.538C301.85 309.275 302.06 310.143 302.06 311.142C302.06 312.141 301.85 313.009 301.43 313.746C301.02 314.474 300.422 315.034 299.638 315.426C298.864 315.809 297.944 316 296.88 316H293.842V306.242H296.88ZM296.88 314.95C298.14 314.95 299.102 314.619 299.764 313.956C300.427 313.284 300.758 312.346 300.758 311.142C300.758 309.929 300.422 308.981 299.75 308.3C299.088 307.619 298.131 307.278 296.88 307.278H295.116V314.95H296.88ZM305.547 306.242V312.416C305.547 313.284 305.757 313.928 306.177 314.348C306.606 314.768 307.199 314.978 307.955 314.978C308.701 314.978 309.285 314.768 309.705 314.348C310.134 313.928 310.349 313.284 310.349 312.416V306.242H311.623V312.402C311.623 313.214 311.459 313.9 311.133 314.46C310.806 315.011 310.363 315.421 309.803 315.692C309.252 315.963 308.631 316.098 307.941 316.098C307.25 316.098 306.625 315.963 306.065 315.692C305.514 315.421 305.075 315.011 304.749 314.46C304.431 313.9 304.273 313.214 304.273 312.402V306.242H305.547ZM313.832 311.114C313.832 310.162 314.047 309.308 314.476 308.552C314.905 307.787 315.489 307.189 316.226 306.76C316.973 306.331 317.799 306.116 318.704 306.116C319.768 306.116 320.697 306.373 321.49 306.886C322.283 307.399 322.862 308.127 323.226 309.07H321.7C321.429 308.482 321.037 308.029 320.524 307.712C320.02 307.395 319.413 307.236 318.704 307.236C318.023 307.236 317.411 307.395 316.87 307.712C316.329 308.029 315.904 308.482 315.596 309.07C315.288 309.649 315.134 310.33 315.134 311.114C315.134 311.889 315.288 312.57 315.596 313.158C315.904 313.737 316.329 314.185 316.87 314.502C317.411 314.819 318.023 314.978 318.704 314.978C319.413 314.978 320.02 314.824 320.524 314.516C321.037 314.199 321.429 313.746 321.7 313.158H323.226C322.862 314.091 322.283 314.815 321.49 315.328C320.697 315.832 319.768 316.084 318.704 316.084C317.799 316.084 316.973 315.874 316.226 315.454C315.489 315.025 314.905 314.432 314.476 313.676C314.047 312.92 313.832 312.066 313.832 311.114ZM331.689 306.242V307.278H329.029V316H327.755V307.278H325.081V306.242H331.689ZM336.911 316.098C336.267 316.098 335.688 315.986 335.175 315.762C334.671 315.529 334.274 315.211 333.985 314.81C333.695 314.399 333.546 313.928 333.537 313.396H334.895C334.941 313.853 335.128 314.241 335.455 314.558C335.791 314.866 336.276 315.02 336.911 315.02C337.517 315.02 337.993 314.871 338.339 314.572C338.693 314.264 338.871 313.872 338.871 313.396C338.871 313.023 338.768 312.719 338.563 312.486C338.357 312.253 338.101 312.075 337.793 311.954C337.485 311.833 337.069 311.702 336.547 311.562C335.903 311.394 335.385 311.226 334.993 311.058C334.61 310.89 334.279 310.629 333.999 310.274C333.728 309.91 333.593 309.425 333.593 308.818C333.593 308.286 333.728 307.815 333.999 307.404C334.269 306.993 334.647 306.676 335.133 306.452C335.627 306.228 336.192 306.116 336.827 306.116C337.741 306.116 338.488 306.345 339.067 306.802C339.655 307.259 339.986 307.866 340.061 308.622H338.661C338.614 308.249 338.418 307.922 338.073 307.642C337.727 307.353 337.27 307.208 336.701 307.208C336.169 307.208 335.735 307.348 335.399 307.628C335.063 307.899 334.895 308.281 334.895 308.776C334.895 309.131 334.993 309.42 335.189 309.644C335.394 309.868 335.641 310.041 335.931 310.162C336.229 310.274 336.645 310.405 337.177 310.554C337.821 310.731 338.339 310.909 338.731 311.086C339.123 311.254 339.459 311.52 339.739 311.884C340.019 312.239 340.159 312.724 340.159 313.34C340.159 313.816 340.033 314.264 339.781 314.684C339.529 315.104 339.155 315.445 338.661 315.706C338.166 315.967 337.583 316.098 336.911 316.098Z" fill="#646464"/>
<g clip-path="url(#clip1_26_376)">
<path d="M646.045 281H660.045C660.234 281.183 660.427 281.36 660.609 281.55C662.478 283.493 664.348 285.435 666.219 287.375C666.329 287.477 666.416 287.604 666.475 287.745C666.533 287.886 666.56 288.039 666.556 288.193C666.556 293.859 666.556 299.526 666.556 305.193C666.556 306.693 665.594 307.675 664.167 307.693C663.364 307.693 662.563 307.693 661.763 307.693C661.523 307.693 661.419 307.738 661.427 308.028C661.448 308.913 661.448 309.798 661.427 310.683C661.43 311.139 661.302 311.587 661.061 311.969C660.82 312.35 660.475 312.649 660.071 312.828C659.887 312.907 659.699 312.974 659.506 313.028H640.877C640.856 313.007 640.831 312.99 640.805 312.978C639.596 312.6 639 311.795 639 310.5V288.823C639 287.323 639.961 286.335 641.389 286.323C642.18 286.323 642.97 286.323 643.761 286.323C644.038 286.323 644.139 286.275 644.131 285.958C644.107 285.083 644.119 284.208 644.131 283.333C644.131 283.014 644.194 282.699 644.316 282.407C644.438 282.115 644.616 281.852 644.84 281.635C645.184 281.321 645.598 281.103 646.045 281ZM640.276 299.64C640.276 303.265 640.276 306.889 640.276 310.513C640.258 310.806 640.35 311.096 640.533 311.32C640.652 311.447 640.797 311.545 640.956 311.606C641.116 311.667 641.287 311.691 641.456 311.675C647.295 311.675 653.133 311.675 658.97 311.675H659.151C659.294 311.679 659.437 311.651 659.569 311.595C659.702 311.539 659.823 311.454 659.922 311.347C660.022 311.24 660.1 311.113 660.15 310.973C660.201 310.833 660.223 310.684 660.215 310.535C660.215 305.12 660.215 299.703 660.215 294.285C660.215 294.035 660.136 293.995 659.924 293.998C658.802 293.998 657.68 293.998 656.56 293.998C655.067 293.998 654.115 293.013 654.113 291.465C654.113 290.31 654.113 289.153 654.113 287.998C654.113 287.748 654.058 287.663 653.8 287.663C649.664 287.663 645.53 287.663 641.394 287.663C640.603 287.663 640.267 288.02 640.267 288.848L640.276 299.64ZM652.68 282.328H646.523C645.763 282.328 645.403 282.705 645.4 283.5C645.398 284.295 645.4 285.148 645.4 285.97C645.4 286.253 645.465 286.335 645.746 286.335C648.679 286.335 651.613 286.335 654.548 286.335C654.695 286.328 654.842 286.353 654.979 286.409C655.116 286.465 655.241 286.55 655.343 286.66C657.257 288.66 659.179 290.66 661.112 292.66C661.221 292.765 661.307 292.894 661.365 293.036C661.422 293.179 661.45 293.333 661.446 293.488C661.446 295.448 661.446 297.405 661.446 299.363C661.446 301.583 661.446 303.802 661.446 306.02C661.446 306.24 661.467 306.35 661.727 306.345C662.59 306.325 663.45 306.345 664.311 306.345C664.444 306.356 664.578 306.335 664.704 306.286C664.829 306.237 664.943 306.16 665.036 306.061C665.13 305.961 665.201 305.841 665.246 305.71C665.29 305.579 665.307 305.439 665.294 305.3C665.294 299.865 665.294 294.428 665.294 288.99C665.294 288.74 665.212 288.685 664.989 288.688C663.856 288.688 662.724 288.688 661.592 288.688C660.15 288.688 659.208 287.688 659.203 286.188C659.203 285.033 659.189 283.875 659.203 282.72C659.203 282.388 659.107 282.33 658.814 282.333C656.766 282.335 654.723 282.328 652.68 282.328ZM655.36 288.648C655.315 288.705 655.346 288.803 655.346 288.898C655.346 289.75 655.346 290.603 655.346 291.455C655.346 292.205 655.733 292.608 656.459 292.61C657.278 292.61 658.098 292.61 658.917 292.61C659.002 292.61 659.098 292.648 659.158 292.59L655.36 288.648ZM660.465 283.355C660.465 284.32 660.465 285.278 660.465 286.235C660.454 286.381 660.474 286.528 660.523 286.665C660.572 286.803 660.649 286.928 660.748 287.031C660.848 287.135 660.967 287.215 661.099 287.266C661.232 287.318 661.373 287.338 661.513 287.328C662.374 287.328 663.234 287.328 664.094 287.328C664.157 287.328 664.234 287.358 664.275 287.3L660.465 283.355Z" fill="#C2835F"/>
<path d="M650.296 302.262H657.026C657.55 302.262 657.809 302.512 657.778 303.012C657.773 303.155 657.718 303.291 657.624 303.395C657.53 303.499 657.403 303.564 657.266 303.577C657.138 303.597 657.009 303.606 656.879 303.602C652.476 303.602 648.07 303.602 643.66 303.602C643.531 303.607 643.401 303.598 643.273 303.577C643.134 303.545 643.009 303.464 642.919 303.349C642.829 303.234 642.779 303.09 642.777 302.942C642.775 302.793 642.821 302.648 642.907 302.53C642.994 302.412 643.116 302.327 643.254 302.29C643.383 302.267 643.513 302.258 643.644 302.262H650.296Z" fill="#C2835F"/>
<path d="M650.272 307.805H643.543C642.999 307.805 642.737 307.538 642.783 307.055C642.785 306.918 642.835 306.786 642.923 306.685C643.012 306.583 643.133 306.518 643.264 306.503C643.392 306.481 643.523 306.472 643.653 306.475H656.899C657.028 306.473 657.157 306.482 657.285 306.503C657.42 306.524 657.543 306.596 657.632 306.704C657.72 306.813 657.768 306.95 657.766 307.093C657.781 307.235 657.748 307.379 657.673 307.498C657.598 307.618 657.484 307.707 657.353 307.75C657.207 307.791 657.056 307.806 656.906 307.795L650.272 307.805Z" fill="#C2835F"/>
<path d="M650.265 299.465H643.691C643.561 299.468 643.431 299.462 643.302 299.447C643.161 299.434 643.029 299.366 642.934 299.257C642.839 299.148 642.787 299.005 642.788 298.857C642.763 298.707 642.793 298.552 642.874 298.424C642.954 298.296 643.078 298.204 643.22 298.167C643.318 298.142 643.418 298.13 643.518 298.132H657.026C657.543 298.132 657.805 298.405 657.764 298.882C657.759 299.023 657.706 299.156 657.615 299.259C657.524 299.363 657.4 299.428 657.266 299.445C657.137 299.462 657.007 299.468 656.877 299.465H650.265Z" fill="#C2835F"/>
<path d="M647.938 293.935C649.419 293.935 650.9 293.935 652.382 293.935C652.863 293.935 653.125 294.207 653.082 294.685C653.076 294.832 653.018 294.972 652.918 295.076C652.818 295.181 652.685 295.243 652.543 295.25C652.474 295.254 652.404 295.254 652.334 295.25H643.535C643.055 295.25 642.814 295.052 642.788 294.642C642.764 294.182 643.009 293.927 643.492 293.927C644.975 293.932 646.451 293.935 647.938 293.935Z" fill="#C2835F"/>
</g>
<g filter="url(#filter1_d_26_376)">
<rect x="160" y="354" width="538" height="91" rx="10" fill="white"/>
<rect x="160.5" y="354.5" width="537" height="90" rx="9.5" stroke="#C2835F" stroke-opacity="0.18"/>
</g>
<rect x="190" y="382" width="6" height="6" rx="3" fill="#C2835F"/>
<path d="M210.288 391.112C209.243 391.112 208.283 390.867 207.408 390.376C206.533 389.885 205.84 389.208 205.328 388.344C204.816 387.469 204.56 386.483 204.56 385.384C204.56 384.296 204.816 383.32 205.328 382.456C205.84 381.581 206.533 380.899 207.408 380.408C208.283 379.917 209.243 379.672 210.288 379.672C211.344 379.672 212.304 379.917 213.168 380.408C214.043 380.899 214.731 381.581 215.232 382.456C215.744 383.32 216 384.296 216 385.384C216 386.483 215.744 387.469 215.232 388.344C214.731 389.208 214.043 389.885 213.168 390.376C212.293 390.867 211.333 391.112 210.288 391.112ZM210.288 389.112C210.96 389.112 211.552 388.963 212.064 388.664C212.576 388.355 212.976 387.917 213.264 387.352C213.552 386.787 213.696 386.131 213.696 385.384C213.696 384.637 213.552 383.987 213.264 383.432C212.976 382.867 212.576 382.435 212.064 382.136C211.552 381.837 210.96 381.688 210.288 381.688C209.616 381.688 209.019 381.837 208.496 382.136C207.984 382.435 207.584 382.867 207.296 383.432C207.008 383.987 206.864 384.637 206.864 385.384C206.864 386.131 207.008 386.787 207.296 387.352C207.584 387.917 207.984 388.355 208.496 388.664C209.019 388.963 209.616 389.112 210.288 389.112ZM224.562 379.832V381.64H219.907V384.504H223.475V386.28H219.907V391H217.667V379.832H224.562ZM233.047 379.832V381.64H228.391V384.504H231.959V386.28H228.391V391H226.151V379.832H233.047ZM236.875 381.64V384.44H240.635V386.216H236.875V389.176H241.115V391H234.635V379.816H241.115V381.64H236.875ZM248.911 391L246.447 386.648H245.391V391H243.151V379.832H247.343C248.207 379.832 248.943 379.987 249.551 380.296C250.159 380.595 250.612 381.005 250.911 381.528C251.22 382.04 251.375 382.616 251.375 383.256C251.375 383.992 251.162 384.659 250.735 385.256C250.308 385.843 249.674 386.248 248.831 386.472L251.503 391H248.911ZM245.391 384.968H247.263C247.871 384.968 248.324 384.824 248.623 384.536C248.922 384.237 249.071 383.827 249.071 383.304C249.071 382.792 248.922 382.397 248.623 382.12C248.324 381.832 247.871 381.688 247.263 381.688H245.391V384.968ZM266.765 391H264.525L259.453 383.336V391H257.213V379.816H259.453L264.525 387.496V379.816H266.765V391ZM275.827 388.872H271.379L270.643 391H268.291L272.307 379.816H274.915L278.931 391H276.563L275.827 388.872ZM275.219 387.08L273.603 382.408L271.987 387.08H275.219ZM292.608 379.832V391H290.368V383.736L287.376 391H285.68L282.672 383.736V391H280.432V379.832H282.976L286.528 388.136L290.08 379.832H292.608ZM297.063 381.64V384.44H300.823V386.216H297.063V389.176H301.303V391H294.823V379.816H301.303V381.64H297.063Z" fill="#C2835F"/>
<path d="M190.714 417.978C191.899 417.026 192.828 416.247 193.5 415.64C194.172 415.024 194.737 414.385 195.194 413.722C195.661 413.05 195.894 412.392 195.894 411.748C195.894 411.141 195.745 410.665 195.446 410.32C195.157 409.965 194.685 409.788 194.032 409.788C193.397 409.788 192.903 409.989 192.548 410.39C192.203 410.782 192.016 411.309 191.988 411.972H190.756C190.793 410.927 191.111 410.119 191.708 409.55C192.305 408.981 193.075 408.696 194.018 408.696C194.979 408.696 195.74 408.962 196.3 409.494C196.869 410.026 197.154 410.759 197.154 411.692C197.154 412.467 196.921 413.223 196.454 413.96C195.997 414.688 195.474 415.332 194.886 415.892C194.298 416.443 193.547 417.087 192.632 417.824H197.448V418.888H190.714V417.978ZM199.481 413.834C199.481 412.229 199.742 410.978 200.265 410.082C200.787 409.177 201.702 408.724 203.009 408.724C204.306 408.724 205.216 409.177 205.739 410.082C206.261 410.978 206.523 412.229 206.523 413.834C206.523 415.467 206.261 416.737 205.739 417.642C205.216 418.547 204.306 419 203.009 419C201.702 419 200.787 418.547 200.265 417.642C199.742 416.737 199.481 415.467 199.481 413.834ZM205.263 413.834C205.263 413.022 205.207 412.336 205.095 411.776C204.992 411.207 204.773 410.749 204.437 410.404C204.11 410.059 203.634 409.886 203.009 409.886C202.374 409.886 201.889 410.059 201.553 410.404C201.226 410.749 201.007 411.207 200.895 411.776C200.792 412.336 200.741 413.022 200.741 413.834C200.741 414.674 200.792 415.379 200.895 415.948C201.007 416.517 201.226 416.975 201.553 417.32C201.889 417.665 202.374 417.838 203.009 417.838C203.634 417.838 204.11 417.665 204.437 417.32C204.773 416.975 204.992 416.517 205.095 415.948C205.207 415.379 205.263 414.674 205.263 413.834ZM208.552 411.16C208.552 410.525 208.743 410.021 209.126 409.648C209.508 409.265 209.998 409.074 210.596 409.074C211.193 409.074 211.683 409.265 212.066 409.648C212.448 410.021 212.64 410.525 212.64 411.16C212.64 411.804 212.448 412.317 212.066 412.7C211.683 413.073 211.193 413.26 210.596 413.26C209.998 413.26 209.508 413.073 209.126 412.7C208.743 412.317 208.552 411.804 208.552 411.16ZM216.728 409.228L211.058 419H209.798L215.468 409.228H216.728ZM210.596 409.858C210.278 409.858 210.026 409.97 209.84 410.194C209.662 410.409 209.574 410.731 209.574 411.16C209.574 411.589 209.662 411.916 209.84 412.14C210.026 412.364 210.278 412.476 210.596 412.476C210.913 412.476 211.165 412.364 211.352 412.14C211.538 411.907 211.632 411.58 211.632 411.16C211.632 410.731 211.538 410.409 211.352 410.194C211.165 409.97 210.913 409.858 210.596 409.858ZM213.914 417.068C213.914 416.424 214.105 415.915 214.488 415.542C214.87 415.159 215.36 414.968 215.958 414.968C216.555 414.968 217.04 415.159 217.414 415.542C217.796 415.915 217.988 416.424 217.988 417.068C217.988 417.703 217.796 418.211 217.414 418.594C217.04 418.977 216.555 419.168 215.958 419.168C215.36 419.168 214.87 418.981 214.488 418.608C214.105 418.225 213.914 417.712 213.914 417.068ZM215.944 415.766C215.626 415.766 215.374 415.878 215.188 416.102C215.001 416.317 214.908 416.639 214.908 417.068C214.908 417.488 215.001 417.81 215.188 418.034C215.374 418.249 215.626 418.356 215.944 418.356C216.261 418.356 216.513 418.249 216.7 418.034C216.886 417.81 216.98 417.488 216.98 417.068C216.98 416.639 216.886 416.317 216.7 416.102C216.513 415.878 216.261 415.766 215.944 415.766ZM228.941 419.098C228.036 419.098 227.21 418.888 226.463 418.468C225.717 418.039 225.124 417.446 224.685 416.69C224.256 415.925 224.041 415.066 224.041 414.114C224.041 413.162 224.256 412.308 224.685 411.552C225.124 410.787 225.717 410.194 226.463 409.774C227.21 409.345 228.036 409.13 228.941 409.13C229.856 409.13 230.687 409.345 231.433 409.774C232.18 410.194 232.768 410.782 233.197 411.538C233.627 412.294 233.841 413.153 233.841 414.114C233.841 415.075 233.627 415.934 233.197 416.69C232.768 417.446 232.18 418.039 231.433 418.468C230.687 418.888 229.856 419.098 228.941 419.098ZM228.941 417.992C229.623 417.992 230.234 417.833 230.775 417.516C231.326 417.199 231.755 416.746 232.063 416.158C232.381 415.57 232.539 414.889 232.539 414.114C232.539 413.33 232.381 412.649 232.063 412.07C231.755 411.482 231.331 411.029 230.789 410.712C230.248 410.395 229.632 410.236 228.941 410.236C228.251 410.236 227.635 410.395 227.093 410.712C226.552 411.029 226.123 411.482 225.805 412.07C225.497 412.649 225.343 413.33 225.343 414.114C225.343 414.889 225.497 415.57 225.805 416.158C226.123 416.746 226.552 417.199 227.093 417.516C227.644 417.833 228.26 417.992 228.941 417.992ZM241.599 409.242V410.278H237.357V413.568H240.801V414.604H237.357V419H236.083V409.242H241.599ZM249.214 409.242V410.278H244.972V413.568H248.416V414.604H244.972V419H243.698V409.242H249.214ZM261.037 411.286C260.832 410.25 260.192 409.732 259.119 409.732C258.288 409.732 257.668 410.054 257.257 410.698C256.846 411.333 256.646 412.383 256.655 413.848C256.87 413.363 257.224 412.985 257.719 412.714C258.223 412.434 258.783 412.294 259.399 412.294C260.36 412.294 261.126 412.593 261.695 413.19C262.274 413.787 262.563 414.613 262.563 415.668C262.563 416.303 262.437 416.872 262.185 417.376C261.942 417.88 261.569 418.281 261.065 418.58C260.57 418.879 259.968 419.028 259.259 419.028C258.298 419.028 257.546 418.813 257.005 418.384C256.464 417.955 256.086 417.362 255.871 416.606C255.656 415.85 255.549 414.917 255.549 413.806C255.549 410.381 256.744 408.668 259.133 408.668C260.048 408.668 260.766 408.915 261.289 409.41C261.812 409.905 262.12 410.53 262.213 411.286H261.037ZM259.133 413.372C258.732 413.372 258.354 413.456 257.999 413.624C257.644 413.783 257.355 414.03 257.131 414.366C256.916 414.693 256.809 415.094 256.809 415.57C256.809 416.279 257.014 416.858 257.425 417.306C257.836 417.745 258.424 417.964 259.189 417.964C259.842 417.964 260.36 417.763 260.743 417.362C261.135 416.951 261.331 416.401 261.331 415.71C261.331 414.982 261.144 414.413 260.771 414.002C260.398 413.582 259.852 413.372 259.133 413.372ZM275.868 412.098C275.868 412.91 275.588 413.587 275.028 414.128C274.477 414.66 273.633 414.926 272.494 414.926H270.618V419H269.344V409.242H272.494C273.595 409.242 274.431 409.508 275 410.04C275.579 410.572 275.868 411.258 275.868 412.098ZM272.494 413.876C273.203 413.876 273.726 413.722 274.062 413.414C274.398 413.106 274.566 412.667 274.566 412.098C274.566 410.894 273.875 410.292 272.494 410.292H270.618V413.876H272.494ZM283.149 419L280.825 415.01H279.285V419H278.011V409.242H281.161C281.899 409.242 282.519 409.368 283.023 409.62C283.537 409.872 283.919 410.213 284.171 410.642C284.423 411.071 284.549 411.561 284.549 412.112C284.549 412.784 284.353 413.377 283.961 413.89C283.579 414.403 283 414.744 282.225 414.912L284.675 419H283.149ZM279.285 413.988H281.161C281.852 413.988 282.37 413.82 282.715 413.484C283.061 413.139 283.233 412.681 283.233 412.112C283.233 411.533 283.061 411.085 282.715 410.768C282.379 410.451 281.861 410.292 281.161 410.292H279.285V413.988ZM291.513 419.098C290.608 419.098 289.782 418.888 289.035 418.468C288.288 418.039 287.696 417.446 287.257 416.69C286.828 415.925 286.613 415.066 286.613 414.114C286.613 413.162 286.828 412.308 287.257 411.552C287.696 410.787 288.288 410.194 289.035 409.774C289.782 409.345 290.608 409.13 291.513 409.13C292.428 409.13 293.258 409.345 294.005 409.774C294.752 410.194 295.34 410.782 295.769 411.538C296.198 412.294 296.413 413.153 296.413 414.114C296.413 415.075 296.198 415.934 295.769 416.69C295.34 417.446 294.752 418.039 294.005 418.468C293.258 418.888 292.428 419.098 291.513 419.098ZM291.513 417.992C292.194 417.992 292.806 417.833 293.347 417.516C293.898 417.199 294.327 416.746 294.635 416.158C294.952 415.57 295.111 414.889 295.111 414.114C295.111 413.33 294.952 412.649 294.635 412.07C294.327 411.482 293.902 411.029 293.361 410.712C292.82 410.395 292.204 410.236 291.513 410.236C290.822 410.236 290.206 410.395 289.665 410.712C289.124 411.029 288.694 411.482 288.377 412.07C288.069 412.649 287.915 413.33 287.915 414.114C287.915 414.889 288.069 415.57 288.377 416.158C288.694 416.746 289.124 417.199 289.665 417.516C290.216 417.833 290.832 417.992 291.513 417.992ZM301.693 409.242C302.757 409.242 303.676 409.443 304.451 409.844C305.235 410.236 305.832 410.801 306.243 411.538C306.663 412.275 306.873 413.143 306.873 414.142C306.873 415.141 306.663 416.009 306.243 416.746C305.832 417.474 305.235 418.034 304.451 418.426C303.676 418.809 302.757 419 301.693 419H298.655V409.242H301.693ZM301.693 417.95C302.953 417.95 303.914 417.619 304.577 416.956C305.24 416.284 305.571 415.346 305.571 414.142C305.571 412.929 305.235 411.981 304.563 411.3C303.9 410.619 302.944 410.278 301.693 410.278H299.929V417.95H301.693ZM310.359 409.242V415.416C310.359 416.284 310.569 416.928 310.989 417.348C311.419 417.768 312.011 417.978 312.767 417.978C313.514 417.978 314.097 417.768 314.517 417.348C314.947 416.928 315.161 416.284 315.161 415.416V409.242H316.435V415.402C316.435 416.214 316.272 416.9 315.945 417.46C315.619 418.011 315.175 418.421 314.615 418.692C314.065 418.963 313.444 419.098 312.753 419.098C312.063 419.098 311.437 418.963 310.877 418.692C310.327 418.421 309.888 418.011 309.561 417.46C309.244 416.9 309.085 416.214 309.085 415.402V409.242H310.359ZM318.645 414.114C318.645 413.162 318.859 412.308 319.289 411.552C319.718 410.787 320.301 410.189 321.039 409.76C321.785 409.331 322.611 409.116 323.517 409.116C324.581 409.116 325.509 409.373 326.303 409.886C327.096 410.399 327.675 411.127 328.039 412.07H326.513C326.242 411.482 325.85 411.029 325.337 410.712C324.833 410.395 324.226 410.236 323.517 410.236C322.835 410.236 322.224 410.395 321.683 410.712C321.141 411.029 320.717 411.482 320.409 412.07C320.101 412.649 319.947 413.33 319.947 414.114C319.947 414.889 320.101 415.57 320.409 416.158C320.717 416.737 321.141 417.185 321.683 417.502C322.224 417.819 322.835 417.978 323.517 417.978C324.226 417.978 324.833 417.824 325.337 417.516C325.85 417.199 326.242 416.746 326.513 416.158H328.039C327.675 417.091 327.096 417.815 326.303 418.328C325.509 418.832 324.581 419.084 323.517 419.084C322.611 419.084 321.785 418.874 321.039 418.454C320.301 418.025 319.718 417.432 319.289 416.676C318.859 415.92 318.645 415.066 318.645 414.114ZM336.501 409.242V410.278H333.841V419H332.567V410.278H329.893V409.242H336.501ZM341.723 419.098C341.079 419.098 340.501 418.986 339.987 418.762C339.483 418.529 339.087 418.211 338.797 417.81C338.508 417.399 338.359 416.928 338.349 416.396H339.707C339.754 416.853 339.941 417.241 340.267 417.558C340.603 417.866 341.089 418.02 341.723 418.02C342.33 418.02 342.806 417.871 343.151 417.572C343.506 417.264 343.683 416.872 343.683 416.396C343.683 416.023 343.581 415.719 343.375 415.486C343.17 415.253 342.913 415.075 342.605 414.954C342.297 414.833 341.882 414.702 341.359 414.562C340.715 414.394 340.197 414.226 339.805 414.058C339.423 413.89 339.091 413.629 338.811 413.274C338.541 412.91 338.405 412.425 338.405 411.818C338.405 411.286 338.541 410.815 338.811 410.404C339.082 409.993 339.46 409.676 339.945 409.452C340.44 409.228 341.005 409.116 341.639 409.116C342.554 409.116 343.301 409.345 343.879 409.802C344.467 410.259 344.799 410.866 344.873 411.622H343.473C343.427 411.249 343.231 410.922 342.885 410.642C342.54 410.353 342.083 410.208 341.513 410.208C340.981 410.208 340.547 410.348 340.211 410.628C339.875 410.899 339.707 411.281 339.707 411.776C339.707 412.131 339.805 412.42 340.001 412.644C340.207 412.868 340.454 413.041 340.743 413.162C341.042 413.274 341.457 413.405 341.989 413.554C342.633 413.731 343.151 413.909 343.543 414.086C343.935 414.254 344.271 414.52 344.551 414.884C344.831 415.239 344.971 415.724 344.971 416.34C344.971 416.816 344.845 417.264 344.593 417.684C344.341 418.104 343.968 418.445 343.473 418.706C342.979 418.967 342.395 419.098 341.723 419.098Z" fill="#646464"/>
<g clip-path="url(#clip2_26_376)">
<path d="M646.045 384H660.045C660.234 384.183 660.427 384.36 660.609 384.55C662.478 386.493 664.348 388.435 666.219 390.375C666.329 390.477 666.416 390.604 666.475 390.745C666.533 390.886 666.56 391.039 666.556 391.193C666.556 396.859 666.556 402.526 666.556 408.193C666.556 409.693 665.594 410.675 664.167 410.693C663.364 410.693 662.563 410.693 661.763 410.693C661.523 410.693 661.419 410.738 661.427 411.028C661.448 411.913 661.448 412.798 661.427 413.683C661.43 414.139 661.302 414.587 661.061 414.969C660.82 415.35 660.475 415.649 660.071 415.828C659.887 415.907 659.699 415.974 659.506 416.028H640.877C640.856 416.007 640.831 415.99 640.805 415.978C639.596 415.6 639 414.795 639 413.5V391.823C639 390.323 639.961 389.335 641.389 389.323C642.18 389.323 642.97 389.323 643.761 389.323C644.038 389.323 644.139 389.275 644.131 388.958C644.107 388.083 644.119 387.208 644.131 386.333C644.131 386.014 644.194 385.699 644.316 385.407C644.438 385.115 644.616 384.852 644.84 384.635C645.184 384.321 645.598 384.103 646.045 384ZM640.276 402.64C640.276 406.265 640.276 409.889 640.276 413.513C640.258 413.806 640.35 414.096 640.533 414.32C640.652 414.447 640.797 414.545 640.956 414.606C641.116 414.667 641.287 414.691 641.456 414.675C647.295 414.675 653.133 414.675 658.97 414.675H659.151C659.294 414.679 659.437 414.651 659.569 414.595C659.702 414.539 659.823 414.454 659.922 414.347C660.022 414.24 660.1 414.113 660.15 413.973C660.201 413.833 660.223 413.684 660.215 413.535C660.215 408.12 660.215 402.703 660.215 397.285C660.215 397.035 660.136 396.995 659.924 396.998C658.802 396.998 657.68 396.998 656.56 396.998C655.067 396.998 654.115 396.013 654.113 394.465C654.113 393.31 654.113 392.153 654.113 390.998C654.113 390.748 654.058 390.663 653.8 390.663C649.664 390.663 645.53 390.663 641.394 390.663C640.603 390.663 640.267 391.02 640.267 391.848L640.276 402.64ZM652.68 385.328H646.523C645.763 385.328 645.403 385.705 645.4 386.5C645.398 387.295 645.4 388.148 645.4 388.97C645.4 389.253 645.465 389.335 645.746 389.335C648.679 389.335 651.613 389.335 654.548 389.335C654.695 389.328 654.842 389.353 654.979 389.409C655.116 389.465 655.241 389.55 655.343 389.66C657.257 391.66 659.179 393.66 661.112 395.66C661.221 395.765 661.307 395.894 661.365 396.036C661.422 396.179 661.45 396.333 661.446 396.488C661.446 398.448 661.446 400.405 661.446 402.363C661.446 404.583 661.446 406.802 661.446 409.02C661.446 409.24 661.467 409.35 661.727 409.345C662.59 409.325 663.45 409.345 664.311 409.345C664.444 409.356 664.578 409.335 664.704 409.286C664.829 409.237 664.943 409.16 665.036 409.061C665.13 408.961 665.201 408.841 665.246 408.71C665.29 408.579 665.307 408.439 665.294 408.3C665.294 402.865 665.294 397.428 665.294 391.99C665.294 391.74 665.212 391.685 664.989 391.688C663.856 391.688 662.724 391.688 661.592 391.688C660.15 391.688 659.208 390.688 659.203 389.188C659.203 388.033 659.189 386.875 659.203 385.72C659.203 385.388 659.107 385.33 658.814 385.333C656.766 385.335 654.723 385.328 652.68 385.328ZM655.36 391.648C655.315 391.705 655.346 391.803 655.346 391.898C655.346 392.75 655.346 393.603 655.346 394.455C655.346 395.205 655.733 395.608 656.459 395.61C657.278 395.61 658.098 395.61 658.917 395.61C659.002 395.61 659.098 395.648 659.158 395.59L655.36 391.648ZM660.465 386.355C660.465 387.32 660.465 388.278 660.465 389.235C660.454 389.381 660.474 389.528 660.523 389.665C660.572 389.803 660.649 389.928 660.748 390.031C660.848 390.135 660.967 390.215 661.099 390.266C661.232 390.318 661.373 390.338 661.513 390.328C662.374 390.328 663.234 390.328 664.094 390.328C664.157 390.328 664.234 390.358 664.275 390.3L660.465 386.355Z" fill="#C2835F"/>
<path d="M650.296 405.262H657.026C657.55 405.262 657.809 405.512 657.778 406.012C657.773 406.155 657.718 406.291 657.624 406.395C657.53 406.499 657.403 406.564 657.266 406.577C657.138 406.597 657.009 406.606 656.879 406.602C652.476 406.602 648.07 406.602 643.66 406.602C643.531 406.607 643.401 406.598 643.273 406.577C643.134 406.545 643.009 406.464 642.919 406.349C642.829 406.234 642.779 406.09 642.777 405.942C642.775 405.793 642.821 405.648 642.907 405.53C642.994 405.412 643.116 405.327 643.254 405.29C643.383 405.267 643.513 405.258 643.644 405.262H650.296Z" fill="#C2835F"/>
<path d="M650.272 410.805H643.543C642.999 410.805 642.737 410.538 642.783 410.055C642.785 409.918 642.835 409.786 642.923 409.685C643.012 409.583 643.133 409.518 643.264 409.503C643.392 409.481 643.523 409.472 643.653 409.475H656.899C657.028 409.473 657.157 409.482 657.285 409.503C657.42 409.524 657.543 409.596 657.632 409.704C657.72 409.813 657.768 409.95 657.766 410.093C657.781 410.235 657.748 410.379 657.673 410.498C657.598 410.618 657.484 410.707 657.353 410.75C657.207 410.791 657.056 410.806 656.906 410.795L650.272 410.805Z" fill="#C2835F"/>
<path d="M650.265 402.465H643.691C643.561 402.468 643.431 402.462 643.302 402.447C643.161 402.434 643.029 402.366 642.934 402.257C642.839 402.148 642.787 402.005 642.788 401.857C642.763 401.707 642.793 401.552 642.874 401.424C642.954 401.296 643.078 401.204 643.22 401.167C643.318 401.142 643.418 401.13 643.518 401.132H657.026C657.543 401.132 657.805 401.405 657.764 401.882C657.759 402.023 657.706 402.156 657.615 402.259C657.524 402.363 657.4 402.428 657.266 402.445C657.137 402.462 657.007 402.468 656.877 402.465H650.265Z" fill="#C2835F"/>
<path d="M647.938 396.935C649.419 396.935 650.9 396.935 652.382 396.935C652.863 396.935 653.125 397.207 653.082 397.685C653.076 397.832 653.018 397.972 652.918 398.076C652.818 398.181 652.685 398.243 652.543 398.25C652.474 398.254 652.404 398.254 652.334 398.25H643.535C643.055 398.25 642.814 398.052 642.788 397.642C642.764 397.182 643.009 396.927 643.492 396.927C644.975 396.932 646.451 396.935 647.938 396.935Z" fill="#C2835F"/>
</g>
<rect x="160" y="460" width="538" height="50" rx="10" fill="#C2835F"/>
<path d="M381.265 486.632H378.481V489.48H375.889V486.632H373.105V484.184H375.889V481.32H378.481V484.184H381.265V486.632ZM399.054 479.768L395.07 491H391.646L387.662 479.768H390.574L393.358 488.248L396.158 479.768H399.054ZM403.894 479.768V491H401.158V479.768H403.894ZM409.573 481.96V484.232H413.237V486.344H409.573V488.808H413.717V491H406.837V479.768H413.717V481.96H409.573ZM431.909 479.768L428.981 491H425.669L423.877 483.608L422.021 491H418.709L415.861 479.768H418.789L420.405 487.944L422.405 479.768H425.413L427.333 487.944L428.965 479.768H431.909ZM451.312 479.768V491H448.576V484.264L446.064 491H443.856L441.328 484.248V491H438.592V479.768H441.824L444.976 487.544L448.096 479.768H451.312ZM459.551 491.112C458.495 491.112 457.525 490.867 456.639 490.376C455.765 489.885 455.066 489.203 454.543 488.328C454.031 487.443 453.775 486.451 453.775 485.352C453.775 484.253 454.031 483.267 454.543 482.392C455.066 481.517 455.765 480.835 456.639 480.344C457.525 479.853 458.495 479.608 459.551 479.608C460.607 479.608 461.573 479.853 462.447 480.344C463.333 480.835 464.026 481.517 464.527 482.392C465.039 483.267 465.295 484.253 465.295 485.352C465.295 486.451 465.039 487.443 464.527 488.328C464.015 489.203 463.322 489.885 462.447 490.376C461.573 490.867 460.607 491.112 459.551 491.112ZM459.551 488.616C460.447 488.616 461.162 488.317 461.695 487.72C462.239 487.123 462.511 486.333 462.511 485.352C462.511 484.36 462.239 483.571 461.695 482.984C461.162 482.387 460.447 482.088 459.551 482.088C458.645 482.088 457.919 482.381 457.375 482.968C456.842 483.555 456.575 484.349 456.575 485.352C456.575 486.344 456.842 487.139 457.375 487.736C457.919 488.323 458.645 488.616 459.551 488.616ZM473.505 491L471.169 486.76H470.513V491H467.777V479.768H472.369C473.255 479.768 474.007 479.923 474.625 480.232C475.255 480.541 475.724 480.968 476.033 481.512C476.343 482.045 476.497 482.643 476.497 483.304C476.497 484.051 476.284 484.717 475.857 485.304C475.441 485.891 474.823 486.307 474.001 486.552L476.593 491H473.505ZM470.513 484.824H472.209C472.711 484.824 473.084 484.701 473.329 484.456C473.585 484.211 473.713 483.864 473.713 483.416C473.713 482.989 473.585 482.653 473.329 482.408C473.084 482.163 472.711 482.04 472.209 482.04H470.513V484.824ZM481.911 481.96V484.232H485.575V486.344H481.911V488.808H486.055V491H479.175V479.768H486.055V481.96H481.911Z" fill="white"/>
<g clip-path="url(#clip3_26_376)">
<path d="M197.742 217.818L185.372 191.936C185.207 191.578 184.967 191.257 184.667 190.994C184.367 190.731 184.014 190.532 183.63 190.409L170.362 186.143C169.669 185.923 168.916 185.964 168.252 186.257C167.588 186.55 167.062 187.074 166.776 187.726L161.24 200.162C161.077 200.521 160.993 200.909 160.993 201.301C160.993 201.693 161.077 202.081 161.24 202.44L173.61 228.322C173.767 228.661 173.991 228.966 174.269 229.22C174.547 229.475 174.874 229.674 175.231 229.806C175.589 229.937 175.969 229.999 176.351 229.988C176.734 229.977 177.11 229.893 177.458 229.741L196.267 221.545C196.971 221.24 197.522 220.677 197.799 219.978C198.075 219.279 198.055 218.502 197.742 217.818ZM172.602 195.456C172.095 195.638 171.544 195.669 171.019 195.548C170.494 195.426 170.018 195.155 169.65 194.771C169.283 194.386 169.042 193.905 168.956 193.387C168.871 192.869 168.945 192.339 169.17 191.862C169.395 191.385 169.761 190.984 170.221 190.709C170.68 190.434 171.214 190.297 171.753 190.316C172.293 190.335 172.815 190.509 173.253 190.816C173.691 191.122 174.026 191.548 174.215 192.039C174.34 192.366 174.398 192.714 174.385 193.063C174.372 193.412 174.289 193.755 174.139 194.073C173.989 194.39 173.776 194.676 173.512 194.913C173.248 195.15 172.939 195.335 172.602 195.456Z" fill="#EA8D59"/>
<path d="M168.718 210.744C167.51 208.216 168.412 205.955 170.629 204.959C172.846 203.962 175.219 204.735 176.432 207.258C177.645 209.782 176.738 212.046 174.503 213.056C172.268 214.065 169.936 213.289 168.718 210.744ZM173.832 208.431C173.126 206.947 172.308 206.607 171.575 206.935C170.842 207.262 170.589 208.091 171.295 209.575C172.002 211.058 172.868 211.378 173.553 211.067C174.237 210.756 174.543 209.915 173.832 208.431ZM179.609 201.124L182.719 199.731L179.431 218.978L176.321 220.372L179.609 201.124ZM182.63 212.831C181.44 210.312 182.328 208.06 184.55 207.051C186.772 206.042 189.149 206.831 190.357 209.355C191.566 211.878 190.664 214.138 188.429 215.148C186.194 216.157 183.852 215.381 182.635 212.836L182.63 212.831ZM187.749 210.528C187.038 209.048 186.198 208.716 185.492 209.035C184.785 209.355 184.501 210.191 185.212 211.671C185.923 213.151 186.772 213.487 187.469 213.176C188.167 212.866 188.46 212.007 187.749 210.528Z" fill="white"/>
</g>
<g clip-path="url(#clip4_26_376)">
<path d="M677.602 186C677.602 186 670.79 186.384 670.237 187.557C670.237 187.557 670.151 192.447 674.968 197.372L674.02 199.376V202.61C676.261 198.369 678.762 191.881 678.762 191.881C678.762 191.881 678.868 187.339 677.602 186Z" fill="#455A64"/>
<g opacity="0.3">
<path d="M677.357 186.431C677.357 186.431 674.978 192.452 676.436 196.812C676.436 196.791 679.704 191.471 677.357 186.431Z" fill="black"/>
</g>
<path d="M688.059 194.108C688.059 194.108 684.909 188.211 683.594 188.201C683.594 188.201 679.012 190.152 676.351 196.443H674.09C674.09 196.443 672.903 191.357 666.852 188.595C666.852 188.595 663.398 194.663 663.281 194.606C665.41 196.522 668.163 197.646 671.056 197.783C675.936 198.032 683.03 197.591 683.03 197.591C683.03 197.591 687.335 195.784 688.059 194.108Z" fill="#455A64"/>
<g opacity="0.3">
<path d="M672.929 197.243C672.929 197.243 667.826 194.367 663.702 194.647C663.702 194.637 668.48 198.566 672.929 197.243Z" fill="black"/>
</g>
<g opacity="0.3">
<path d="M687.564 194.071C687.564 194.071 680.96 194.435 677.506 197.513C677.506 197.513 683.802 198.229 687.564 194.071Z" fill="black"/>
</g>
<path d="M698 197.549L696.196 224L654.325 223.621L654 197.149L698 197.549Z" fill="#EA8D59"/>
<g opacity="0.3">
<path d="M690.055 197.476L689.799 223.943L696.196 224L698 197.549L690.055 197.476Z" fill="black"/>
</g>
<path d="M694.85 197.518L693.53 223.979L692.077 223.964L692.332 197.497L694.85 197.518Z" fill="#455A64"/>
<path d="M670.626 197.298L670.37 223.764L673.861 223.796L674.117 197.331L670.626 197.298Z" fill="#455A64"/>
<path d="M697.058 208.807H654.144V211.377H697.058V208.807Z" fill="#455A64"/>
</g>
<defs>
<filter id="filter0_d_26_376" x="140" y="235" width="578" height="131" filterUnits="userSpaceOnUse" color-interpolation-filters="sRGB">
<feFlood flood-opacity="0" result="BackgroundImageFix"/>
<feColorMatrix in="SourceAlpha" type="matrix" values="0 0 0 0 0 0 0 0 0 0 0 0 0 0 0 0 0 0 127 0" result="hardAlpha"/>
<feOffset dy="4"/>
<feGaussianBlur stdDeviation="10"/>
<feComposite in2="hardAlpha" operator="out"/>
<feColorMatrix type="matrix" values="0 0 0 0 0 0 0 0 0 0 0 0 0 0 0 0 0 0 0.06 0"/>
<feBlend mode="normal" in2="BackgroundImageFix" result="effect1_dropShadow_26_376"/>
<feBlend mode="normal" in="SourceGraphic" in2="effect1_dropShadow_26_376" result="shape"/>
</filter>
<filter id="filter1_d_26_376" x="140" y="338" width="578" height="131" filterUnits="userSpaceOnUse" color-interpolation-filters="sRGB">
<feFlood flood-opacity="0" result="BackgroundImageFix"/>
<feColorMatrix in="SourceAlpha" type="matrix" values="0 0 0 0 0 0 0 0 0 0 0 0 0 0 0 0 0 0 127 0" result="hardAlpha"/>
<feOffset dy="4"/>
<feGaussianBlur stdDeviation="10"/>
<feComposite in2="hardAlpha" operator="out"/>
<feColorMatrix type="matrix" values="0 0 0 0 0 0 0 0 0 0 0 0 0 0 0 0 0 0 0.06 0"/>
<feBlend mode="normal" in2="BackgroundImageFix" result="effect1_dropShadow_26_376"/>
<feBlend mode="normal" in="SourceGraphic" in2="effect1_dropShadow_26_376" result="shape"/>
</filter>
<clipPath id="clip0_26_376">
<rect width="35" height="34" fill="white" transform="translate(321 190)"/>
</clipPath>
<clipPath id="clip1_26_376">
<rect width="27.5556" height="32" fill="white" transform="translate(639 281)"/>
</clipPath>
<clipPath id="clip2_26_376">
<rect width="27.5556" height="32" fill="white" transform="translate(639 384)"/>
</clipPath>
<clipPath id="clip3_26_376">
<rect width="37" height="44" fill="white" transform="translate(161 186)"/>
</clipPath>
<clipPath id="clip4_26_376">
<rect width="44" height="38" fill="white" transform="translate(654 186)"/>
</clipPath>
</defs>
</svg>
